<mxfile host="app.diagrams.net" modified="2023-12-05T15:02:19.150Z" agent="Mozilla/5.0 (Windows NT 10.0; Win64; x64) AppleWebKit/537.36 (KHTML, like Gecko) Chrome/119.0.0.0 Safari/537.36 Edg/119.0.0.0" etag="PmMhr9O9OBDnomDMA5lT" version="22.1.5" type="github">
  <diagram name="第 1 页" id="WHMRSkOHGIDh6wjL014g">
    <mxGraphModel dx="906" dy="665" grid="1" gridSize="10" guides="1" tooltips="1" connect="1" arrows="1" fold="1" page="1" pageScale="1" pageWidth="827" pageHeight="1169" math="0" shadow="0">
      <root>
        <mxCell id="0" />
        <mxCell id="1" parent="0" />
        <mxCell id="w5M1tSAXREa1LxgLC_0v-11" style="edgeStyle=orthogonalEdgeStyle;rounded=0;orthogonalLoop=1;jettySize=auto;html=1;exitX=1;exitY=0.5;exitDx=0;exitDy=0;" edge="1" parent="1" source="w5M1tSAXREa1LxgLC_0v-1" target="w5M1tSAXREa1LxgLC_0v-6">
          <mxGeometry relative="1" as="geometry" />
        </mxCell>
        <mxCell id="w5M1tSAXREa1LxgLC_0v-1" value="pA" style="rectangle;whiteSpace=wrap;html=1;aspect=fixed;fillColor=#e1d5e7;strokeColor=#9673a6;perimeter=rectanglePerimeter;" vertex="1" parent="1">
          <mxGeometry x="180" y="210" width="40" height="40" as="geometry" />
        </mxCell>
        <mxCell id="w5M1tSAXREa1LxgLC_0v-12" style="edgeStyle=orthogonalEdgeStyle;rounded=0;orthogonalLoop=1;jettySize=auto;html=1;exitX=1;exitY=0.5;exitDx=0;exitDy=0;entryX=0.5;entryY=0;entryDx=0;entryDy=0;" edge="1" parent="1" source="w5M1tSAXREa1LxgLC_0v-3" target="w5M1tSAXREa1LxgLC_0v-7">
          <mxGeometry relative="1" as="geometry" />
        </mxCell>
        <mxCell id="w5M1tSAXREa1LxgLC_0v-13" style="edgeStyle=orthogonalEdgeStyle;rounded=0;orthogonalLoop=1;jettySize=auto;html=1;exitX=0.5;exitY=1;exitDx=0;exitDy=0;curved=1;" edge="1" parent="1" source="w5M1tSAXREa1LxgLC_0v-3">
          <mxGeometry relative="1" as="geometry">
            <mxPoint x="200" y="400" as="targetPoint" />
            <Array as="points">
              <mxPoint x="320" y="400" />
            </Array>
          </mxGeometry>
        </mxCell>
        <mxCell id="w5M1tSAXREa1LxgLC_0v-3" value="pB" style="rectangle;whiteSpace=wrap;html=1;aspect=fixed;fillColor=#e1d5e7;strokeColor=#9673a6;" vertex="1" parent="1">
          <mxGeometry x="300" y="210" width="40" height="40" as="geometry" />
        </mxCell>
        <mxCell id="w5M1tSAXREa1LxgLC_0v-64" style="edgeStyle=orthogonalEdgeStyle;rounded=0;orthogonalLoop=1;jettySize=auto;html=1;exitX=0.5;exitY=1;exitDx=0;exitDy=0;entryX=1;entryY=0.5;entryDx=0;entryDy=0;" edge="1" parent="1" source="w5M1tSAXREa1LxgLC_0v-4" target="w5M1tSAXREa1LxgLC_0v-52">
          <mxGeometry relative="1" as="geometry" />
        </mxCell>
        <mxCell id="w5M1tSAXREa1LxgLC_0v-65" style="edgeStyle=orthogonalEdgeStyle;rounded=0;orthogonalLoop=1;jettySize=auto;html=1;exitX=0.5;exitY=1;exitDx=0;exitDy=0;entryX=1;entryY=0.5;entryDx=0;entryDy=0;curved=1;" edge="1" parent="1" source="w5M1tSAXREa1LxgLC_0v-4" target="w5M1tSAXREa1LxgLC_0v-56">
          <mxGeometry relative="1" as="geometry">
            <Array as="points">
              <mxPoint x="596" y="250" />
            </Array>
          </mxGeometry>
        </mxCell>
        <mxCell id="w5M1tSAXREa1LxgLC_0v-4" value="j" style="ellipse;whiteSpace=wrap;html=1;aspect=fixed;fillColor=#e1d5e7;strokeColor=#9673a6;" vertex="1" parent="1">
          <mxGeometry x="480" y="210" width="40" height="40" as="geometry" />
        </mxCell>
        <mxCell id="w5M1tSAXREa1LxgLC_0v-34" style="edgeStyle=orthogonalEdgeStyle;rounded=0;orthogonalLoop=1;jettySize=auto;html=1;exitX=0.5;exitY=1;exitDx=0;exitDy=0;entryX=1;entryY=0.5;entryDx=0;entryDy=0;curved=1;" edge="1" parent="1" source="w5M1tSAXREa1LxgLC_0v-5" target="w5M1tSAXREa1LxgLC_0v-27">
          <mxGeometry relative="1" as="geometry">
            <Array as="points">
              <mxPoint x="596" y="530" />
              <mxPoint x="320" y="530" />
            </Array>
          </mxGeometry>
        </mxCell>
        <mxCell id="w5M1tSAXREa1LxgLC_0v-57" style="edgeStyle=orthogonalEdgeStyle;rounded=0;orthogonalLoop=1;jettySize=auto;html=1;exitX=0.5;exitY=1;exitDx=0;exitDy=0;entryX=1;entryY=0.5;entryDx=0;entryDy=0;" edge="1" parent="1" source="w5M1tSAXREa1LxgLC_0v-5" target="w5M1tSAXREa1LxgLC_0v-56">
          <mxGeometry relative="1" as="geometry" />
        </mxCell>
        <mxCell id="w5M1tSAXREa1LxgLC_0v-5" value="temp" style="ellipse;whiteSpace=wrap;html=1;aspect=fixed;fillColor=#e1d5e7;strokeColor=#9673a6;" vertex="1" parent="1">
          <mxGeometry x="576" y="210" width="40" height="40" as="geometry" />
        </mxCell>
        <mxCell id="w5M1tSAXREa1LxgLC_0v-10" style="edgeStyle=orthogonalEdgeStyle;rounded=0;orthogonalLoop=1;jettySize=auto;html=1;exitX=0.5;exitY=1;exitDx=0;exitDy=0;entryX=0.5;entryY=0;entryDx=0;entryDy=0;curved=1;" edge="1" parent="1" source="w5M1tSAXREa1LxgLC_0v-6">
          <mxGeometry relative="1" as="geometry">
            <mxPoint x="200" y="400" as="targetPoint" />
            <Array as="points">
              <mxPoint x="250" y="400" />
            </Array>
          </mxGeometry>
        </mxCell>
        <mxCell id="w5M1tSAXREa1LxgLC_0v-53" style="edgeStyle=orthogonalEdgeStyle;rounded=0;orthogonalLoop=1;jettySize=auto;html=1;exitX=1;exitY=0.5;exitDx=0;exitDy=0;entryX=0.5;entryY=0;entryDx=0;entryDy=0;" edge="1" parent="1" source="w5M1tSAXREa1LxgLC_0v-6" target="w5M1tSAXREa1LxgLC_0v-52">
          <mxGeometry relative="1" as="geometry">
            <Array as="points">
              <mxPoint x="270" y="375" />
            </Array>
          </mxGeometry>
        </mxCell>
        <mxCell id="w5M1tSAXREa1LxgLC_0v-6" value="pA&amp;lt;" style="ellipse;whiteSpace=wrap;html=1;aspect=fixed;fillColor=#f5f5f5;strokeColor=#666666;fontColor=#333333;" vertex="1" parent="1">
          <mxGeometry x="230" y="300" width="40" height="40" as="geometry" />
        </mxCell>
        <mxCell id="w5M1tSAXREa1LxgLC_0v-54" style="edgeStyle=orthogonalEdgeStyle;rounded=0;orthogonalLoop=1;jettySize=auto;html=1;exitX=1;exitY=0.5;exitDx=0;exitDy=0;entryX=0.5;entryY=0;entryDx=0;entryDy=0;" edge="1" parent="1" source="w5M1tSAXREa1LxgLC_0v-7" target="w5M1tSAXREa1LxgLC_0v-52">
          <mxGeometry relative="1" as="geometry">
            <Array as="points">
              <mxPoint x="380" y="375" />
            </Array>
          </mxGeometry>
        </mxCell>
        <mxCell id="w5M1tSAXREa1LxgLC_0v-7" value="pB&amp;lt;" style="ellipse;whiteSpace=wrap;html=1;aspect=fixed;fillColor=#f5f5f5;strokeColor=#666666;fontColor=#333333;" vertex="1" parent="1">
          <mxGeometry x="340" y="300" width="40" height="40" as="geometry" />
        </mxCell>
        <mxCell id="w5M1tSAXREa1LxgLC_0v-17" style="edgeStyle=orthogonalEdgeStyle;rounded=0;orthogonalLoop=1;jettySize=auto;html=1;entryX=0.5;entryY=0;entryDx=0;entryDy=0;" edge="1" parent="1" target="w5M1tSAXREa1LxgLC_0v-14">
          <mxGeometry relative="1" as="geometry">
            <mxPoint x="184.99784389823196" y="430.00431220353596" as="sourcePoint" />
          </mxGeometry>
        </mxCell>
        <mxCell id="w5M1tSAXREa1LxgLC_0v-18" style="edgeStyle=orthogonalEdgeStyle;rounded=0;orthogonalLoop=1;jettySize=auto;html=1;exitX=0.5;exitY=1;exitDx=0;exitDy=0;entryX=0.5;entryY=0;entryDx=0;entryDy=0;" edge="1" parent="1" target="w5M1tSAXREa1LxgLC_0v-15">
          <mxGeometry relative="1" as="geometry">
            <mxPoint x="200" y="440" as="sourcePoint" />
          </mxGeometry>
        </mxCell>
        <mxCell id="w5M1tSAXREa1LxgLC_0v-19" style="edgeStyle=orthogonalEdgeStyle;rounded=0;orthogonalLoop=1;jettySize=auto;html=1;exitX=0.5;exitY=1;exitDx=0;exitDy=0;entryX=0.5;entryY=0;entryDx=0;entryDy=0;" edge="1" parent="1" target="w5M1tSAXREa1LxgLC_0v-16">
          <mxGeometry relative="1" as="geometry">
            <mxPoint x="215" y="430" as="sourcePoint" />
          </mxGeometry>
        </mxCell>
        <mxCell id="w5M1tSAXREa1LxgLC_0v-9" value="" style="endArrow=classic;html=1;rounded=0;entryX=0.5;entryY=0;entryDx=0;entryDy=0;exitX=0.5;exitY=1;exitDx=0;exitDy=0;" edge="1" parent="1" source="w5M1tSAXREa1LxgLC_0v-1">
          <mxGeometry width="50" height="50" relative="1" as="geometry">
            <mxPoint x="130" y="330" as="sourcePoint" />
            <mxPoint x="200" y="400" as="targetPoint" />
          </mxGeometry>
        </mxCell>
        <mxCell id="w5M1tSAXREa1LxgLC_0v-28" style="edgeStyle=orthogonalEdgeStyle;rounded=0;orthogonalLoop=1;jettySize=auto;html=1;exitX=0.5;exitY=1;exitDx=0;exitDy=0;entryX=1;entryY=0.5;entryDx=0;entryDy=0;" edge="1" parent="1" source="w5M1tSAXREa1LxgLC_0v-14" target="w5M1tSAXREa1LxgLC_0v-25">
          <mxGeometry relative="1" as="geometry" />
        </mxCell>
        <mxCell id="w5M1tSAXREa1LxgLC_0v-14" value="LD" style="ellipse;whiteSpace=wrap;html=1;aspect=fixed;fillColor=#f5f5f5;strokeColor=#666666;fontColor=#333333;" vertex="1" parent="1">
          <mxGeometry x="60" y="480" width="40" height="40" as="geometry" />
        </mxCell>
        <mxCell id="w5M1tSAXREa1LxgLC_0v-29" style="edgeStyle=orthogonalEdgeStyle;rounded=0;orthogonalLoop=1;jettySize=auto;html=1;exitX=0.5;exitY=1;exitDx=0;exitDy=0;entryX=1;entryY=0.5;entryDx=0;entryDy=0;" edge="1" parent="1" source="w5M1tSAXREa1LxgLC_0v-15" target="w5M1tSAXREa1LxgLC_0v-26">
          <mxGeometry relative="1" as="geometry" />
        </mxCell>
        <mxCell id="w5M1tSAXREa1LxgLC_0v-15" value="LD" style="ellipse;whiteSpace=wrap;html=1;aspect=fixed;fillColor=#f5f5f5;strokeColor=#666666;fontColor=#333333;" vertex="1" parent="1">
          <mxGeometry x="180" y="480" width="40" height="40" as="geometry" />
        </mxCell>
        <mxCell id="w5M1tSAXREa1LxgLC_0v-30" style="edgeStyle=orthogonalEdgeStyle;rounded=0;orthogonalLoop=1;jettySize=auto;html=1;exitX=0.5;exitY=1;exitDx=0;exitDy=0;entryX=1;entryY=0.5;entryDx=0;entryDy=0;" edge="1" parent="1" source="w5M1tSAXREa1LxgLC_0v-16" target="w5M1tSAXREa1LxgLC_0v-27">
          <mxGeometry relative="1" as="geometry" />
        </mxCell>
        <mxCell id="w5M1tSAXREa1LxgLC_0v-16" value="LD" style="ellipse;whiteSpace=wrap;html=1;aspect=fixed;fillColor=#f5f5f5;strokeColor=#666666;fontColor=#333333;" vertex="1" parent="1">
          <mxGeometry x="300" y="480" width="40" height="40" as="geometry" />
        </mxCell>
        <mxCell id="w5M1tSAXREa1LxgLC_0v-24" value="WHILE" style="triangle;whiteSpace=wrap;html=1;direction=north;fillColor=#f5f5f5;fontColor=#333333;strokeColor=#666666;" vertex="1" parent="1">
          <mxGeometry x="170" y="400" width="60" height="50" as="geometry" />
        </mxCell>
        <mxCell id="w5M1tSAXREa1LxgLC_0v-36" style="edgeStyle=orthogonalEdgeStyle;rounded=0;orthogonalLoop=1;jettySize=auto;html=1;exitX=0;exitY=0.5;exitDx=0;exitDy=0;entryX=0.5;entryY=0;entryDx=0;entryDy=0;" edge="1" parent="1" source="w5M1tSAXREa1LxgLC_0v-25" target="w5M1tSAXREa1LxgLC_0v-31">
          <mxGeometry relative="1" as="geometry" />
        </mxCell>
        <mxCell id="w5M1tSAXREa1LxgLC_0v-25" value="&amp;lt;" style="triangle;whiteSpace=wrap;html=1;direction=north;fillColor=#f5f5f5;fontColor=#333333;strokeColor=#666666;" vertex="1" parent="1">
          <mxGeometry x="50" y="559" width="60" height="50" as="geometry" />
        </mxCell>
        <mxCell id="w5M1tSAXREa1LxgLC_0v-37" style="edgeStyle=orthogonalEdgeStyle;rounded=0;orthogonalLoop=1;jettySize=auto;html=1;exitX=0;exitY=0.5;exitDx=0;exitDy=0;entryX=0.5;entryY=0;entryDx=0;entryDy=0;" edge="1" parent="1" source="w5M1tSAXREa1LxgLC_0v-26" target="w5M1tSAXREa1LxgLC_0v-32">
          <mxGeometry relative="1" as="geometry" />
        </mxCell>
        <mxCell id="w5M1tSAXREa1LxgLC_0v-26" value="&amp;gt;" style="triangle;whiteSpace=wrap;html=1;direction=north;fillColor=#f5f5f5;fontColor=#333333;strokeColor=#666666;" vertex="1" parent="1">
          <mxGeometry x="170" y="559" width="60" height="50" as="geometry" />
        </mxCell>
        <mxCell id="w5M1tSAXREa1LxgLC_0v-38" style="edgeStyle=orthogonalEdgeStyle;rounded=0;orthogonalLoop=1;jettySize=auto;html=1;exitX=0;exitY=0.5;exitDx=0;exitDy=0;entryX=0.5;entryY=0;entryDx=0;entryDy=0;" edge="1" parent="1" source="w5M1tSAXREa1LxgLC_0v-27" target="w5M1tSAXREa1LxgLC_0v-33">
          <mxGeometry relative="1" as="geometry" />
        </mxCell>
        <mxCell id="w5M1tSAXREa1LxgLC_0v-39" style="edgeStyle=orthogonalEdgeStyle;rounded=0;orthogonalLoop=1;jettySize=auto;html=1;exitX=0;exitY=0.5;exitDx=0;exitDy=0;entryX=0.5;entryY=0;entryDx=0;entryDy=0;" edge="1" parent="1" source="w5M1tSAXREa1LxgLC_0v-27" target="w5M1tSAXREa1LxgLC_0v-35">
          <mxGeometry relative="1" as="geometry" />
        </mxCell>
        <mxCell id="w5M1tSAXREa1LxgLC_0v-27" value="=" style="triangle;whiteSpace=wrap;html=1;direction=north;fillColor=#f5f5f5;fontColor=#333333;strokeColor=#666666;" vertex="1" parent="1">
          <mxGeometry x="290" y="559" width="60" height="50" as="geometry" />
        </mxCell>
        <mxCell id="w5M1tSAXREa1LxgLC_0v-31" value="+1" style="ellipse;whiteSpace=wrap;html=1;aspect=fixed;fillColor=#f5f5f5;strokeColor=#666666;fontColor=#333333;" vertex="1" parent="1">
          <mxGeometry x="60" y="640" width="40" height="40" as="geometry" />
        </mxCell>
        <mxCell id="w5M1tSAXREa1LxgLC_0v-32" value="+1" style="ellipse;whiteSpace=wrap;html=1;aspect=fixed;fillColor=#f5f5f5;strokeColor=#666666;fontColor=#333333;" vertex="1" parent="1">
          <mxGeometry x="180" y="640" width="40" height="40" as="geometry" />
        </mxCell>
        <mxCell id="w5M1tSAXREa1LxgLC_0v-42" style="edgeStyle=orthogonalEdgeStyle;rounded=0;orthogonalLoop=1;jettySize=auto;html=1;exitX=0.5;exitY=1;exitDx=0;exitDy=0;entryX=0.5;entryY=0;entryDx=0;entryDy=0;" edge="1" parent="1" source="w5M1tSAXREa1LxgLC_0v-33" target="w5M1tSAXREa1LxgLC_0v-41">
          <mxGeometry relative="1" as="geometry" />
        </mxCell>
        <mxCell id="w5M1tSAXREa1LxgLC_0v-33" value="LD" style="ellipse;whiteSpace=wrap;html=1;aspect=fixed;fillColor=#f5f5f5;strokeColor=#666666;fontColor=#333333;" vertex="1" parent="1">
          <mxGeometry x="270" y="640" width="40" height="40" as="geometry" />
        </mxCell>
        <mxCell id="w5M1tSAXREa1LxgLC_0v-46" style="edgeStyle=orthogonalEdgeStyle;rounded=0;orthogonalLoop=1;jettySize=auto;html=1;exitX=0.5;exitY=1;exitDx=0;exitDy=0;entryX=0.5;entryY=0;entryDx=0;entryDy=0;" edge="1" parent="1" source="w5M1tSAXREa1LxgLC_0v-35" target="w5M1tSAXREa1LxgLC_0v-41">
          <mxGeometry relative="1" as="geometry" />
        </mxCell>
        <mxCell id="w5M1tSAXREa1LxgLC_0v-35" value="LD" style="ellipse;whiteSpace=wrap;html=1;aspect=fixed;fillColor=#f5f5f5;strokeColor=#666666;fontColor=#333333;" vertex="1" parent="1">
          <mxGeometry x="330" y="640" width="40" height="40" as="geometry" />
        </mxCell>
        <mxCell id="w5M1tSAXREa1LxgLC_0v-50" style="edgeStyle=orthogonalEdgeStyle;rounded=0;orthogonalLoop=1;jettySize=auto;html=1;exitX=0.5;exitY=1;exitDx=0;exitDy=0;entryX=0.5;entryY=0;entryDx=0;entryDy=0;" edge="1" parent="1" source="w5M1tSAXREa1LxgLC_0v-41" target="w5M1tSAXREa1LxgLC_0v-44">
          <mxGeometry relative="1" as="geometry" />
        </mxCell>
        <mxCell id="w5M1tSAXREa1LxgLC_0v-51" style="edgeStyle=orthogonalEdgeStyle;rounded=0;orthogonalLoop=1;jettySize=auto;html=1;exitX=0.5;exitY=1;exitDx=0;exitDy=0;entryX=0.5;entryY=0;entryDx=0;entryDy=0;" edge="1" parent="1" source="w5M1tSAXREa1LxgLC_0v-41" target="w5M1tSAXREa1LxgLC_0v-45">
          <mxGeometry relative="1" as="geometry" />
        </mxCell>
        <mxCell id="w5M1tSAXREa1LxgLC_0v-41" value="MUL" style="ellipse;whiteSpace=wrap;html=1;aspect=fixed;fillColor=#f5f5f5;strokeColor=#666666;fontColor=#333333;" vertex="1" parent="1">
          <mxGeometry x="300" y="720" width="40" height="40" as="geometry" />
        </mxCell>
        <mxCell id="w5M1tSAXREa1LxgLC_0v-44" value="+1" style="ellipse;whiteSpace=wrap;html=1;aspect=fixed;fillColor=#f5f5f5;strokeColor=#666666;fontColor=#333333;" vertex="1" parent="1">
          <mxGeometry x="270" y="810" width="40" height="40" as="geometry" />
        </mxCell>
        <mxCell id="w5M1tSAXREa1LxgLC_0v-45" value="+1" style="ellipse;whiteSpace=wrap;html=1;aspect=fixed;fillColor=#f5f5f5;strokeColor=#666666;fontColor=#333333;" vertex="1" parent="1">
          <mxGeometry x="330" y="810" width="40" height="40" as="geometry" />
        </mxCell>
        <mxCell id="w5M1tSAXREa1LxgLC_0v-55" style="edgeStyle=orthogonalEdgeStyle;rounded=0;orthogonalLoop=1;jettySize=auto;html=1;exitX=0.5;exitY=1;exitDx=0;exitDy=0;entryX=1;entryY=0.5;entryDx=0;entryDy=0;curved=1;" edge="1" parent="1" source="w5M1tSAXREa1LxgLC_0v-52" target="w5M1tSAXREa1LxgLC_0v-4">
          <mxGeometry relative="1" as="geometry">
            <Array as="points">
              <mxPoint x="540" y="375" />
              <mxPoint x="540" y="230" />
            </Array>
          </mxGeometry>
        </mxCell>
        <mxCell id="w5M1tSAXREa1LxgLC_0v-52" value="Tj" style="triangle;whiteSpace=wrap;html=1;direction=north;fillColor=#f5f5f5;fontColor=#333333;strokeColor=#666666;" vertex="1" parent="1">
          <mxGeometry x="470" y="350" width="60" height="50" as="geometry" />
        </mxCell>
        <mxCell id="w5M1tSAXREa1LxgLC_0v-61" style="edgeStyle=orthogonalEdgeStyle;rounded=0;orthogonalLoop=1;jettySize=auto;html=1;exitX=0;exitY=0.5;exitDx=0;exitDy=0;entryX=0.5;entryY=0;entryDx=0;entryDy=0;" edge="1" parent="1" source="w5M1tSAXREa1LxgLC_0v-56" target="w5M1tSAXREa1LxgLC_0v-58">
          <mxGeometry relative="1" as="geometry" />
        </mxCell>
        <mxCell id="w5M1tSAXREa1LxgLC_0v-62" style="edgeStyle=orthogonalEdgeStyle;rounded=0;orthogonalLoop=1;jettySize=auto;html=1;exitX=0;exitY=0.5;exitDx=0;exitDy=0;entryX=0.5;entryY=0;entryDx=0;entryDy=0;" edge="1" parent="1" source="w5M1tSAXREa1LxgLC_0v-56" target="w5M1tSAXREa1LxgLC_0v-59">
          <mxGeometry relative="1" as="geometry" />
        </mxCell>
        <mxCell id="w5M1tSAXREa1LxgLC_0v-63" style="edgeStyle=orthogonalEdgeStyle;rounded=0;orthogonalLoop=1;jettySize=auto;html=1;exitX=0;exitY=0.5;exitDx=0;exitDy=0;entryX=0.5;entryY=0;entryDx=0;entryDy=0;" edge="1" parent="1" source="w5M1tSAXREa1LxgLC_0v-56" target="w5M1tSAXREa1LxgLC_0v-60">
          <mxGeometry relative="1" as="geometry" />
        </mxCell>
        <mxCell id="w5M1tSAXREa1LxgLC_0v-56" value="!=0" style="triangle;whiteSpace=wrap;html=1;direction=north;fillColor=#f5f5f5;fontColor=#333333;strokeColor=#666666;" vertex="1" parent="1">
          <mxGeometry x="566" y="559" width="60" height="50" as="geometry" />
        </mxCell>
        <mxCell id="w5M1tSAXREa1LxgLC_0v-58" value="LD" style="ellipse;whiteSpace=wrap;html=1;aspect=fixed;fillColor=#f5f5f5;strokeColor=#666666;fontColor=#333333;" vertex="1" parent="1">
          <mxGeometry x="510" y="660" width="40" height="40" as="geometry" />
        </mxCell>
        <mxCell id="w5M1tSAXREa1LxgLC_0v-59" value="LD" style="ellipse;whiteSpace=wrap;html=1;aspect=fixed;fillColor=#f5f5f5;strokeColor=#666666;fontColor=#333333;" vertex="1" parent="1">
          <mxGeometry x="576" y="660" width="40" height="40" as="geometry" />
        </mxCell>
        <mxCell id="w5M1tSAXREa1LxgLC_0v-60" value="+1" style="ellipse;whiteSpace=wrap;html=1;aspect=fixed;fillColor=#f5f5f5;strokeColor=#666666;fontColor=#333333;" vertex="1" parent="1">
          <mxGeometry x="640" y="660" width="40" height="40" as="geometry" />
        </mxCell>
      </root>
    </mxGraphModel>
  </diagram>
</mxfile>
